<svg width="25" height="25" viewBox="0 0 25 25" fill="none" xmlns="http://www.w3.org/2000/svg">
<g clip-path="url(#clip0_2399_17167)">
<path d="M22.5463 13.1199L21.7263 12.4899V12.2699L22.5263 11.6399C22.6863 11.5199 22.7263 11.2999 22.6263 11.1299L21.7763 9.64988C21.7063 9.51988 21.5663 9.44988 21.4263 9.44988C21.3763 9.44988 21.3263 9.45988 21.2763 9.47988L20.3263 9.85988C20.2463 9.80988 20.2163 9.78988 20.1363 9.74988L19.9863 8.73988C19.9563 8.52988 19.7863 8.37988 19.5863 8.37988H17.8763C17.6763 8.37988 17.5063 8.52988 17.4763 8.71988L17.3363 9.72988C17.3063 9.74988 17.2663 9.75988 17.2363 9.77988L17.1463 9.83988L16.1963 9.45988C16.1463 9.43988 16.0963 9.42988 16.0463 9.42988C15.9063 9.42988 15.7763 9.49988 15.6963 9.62988L14.8463 11.1099C14.7463 11.2799 14.7863 11.4999 14.9463 11.6199L15.7463 12.2499V12.4799L14.9463 13.1099C14.7863 13.2299 14.7463 13.4499 14.8463 13.6199L15.6963 15.0999C15.7663 15.2299 15.9063 15.2999 16.0463 15.2999C16.0963 15.2999 16.1463 15.2899 16.1963 15.2699L17.1463 14.8999C17.2263 14.9499 17.2663 14.9699 17.3463 15.0099L17.4963 16.0199C17.5263 16.2199 17.6963 16.3599 17.8963 16.3599H19.6063C19.8063 16.3599 19.9763 16.2099 20.0063 16.0199L20.1563 15.0099C20.1863 14.9899 20.2263 14.9799 20.2563 14.9599L20.3463 14.8999L21.2963 15.2799C21.3463 15.2999 21.3963 15.3099 21.4463 15.3099C21.5863 15.3099 21.7163 15.2399 21.7963 15.1099L22.6463 13.6299C22.7463 13.4599 22.7063 13.2399 22.5463 13.1199ZM18.7363 13.8799C17.9063 13.8799 17.2363 13.2099 17.2363 12.3799C17.2363 11.5499 17.9063 10.8799 18.7363 10.8799C19.5663 10.8799 20.2363 11.5499 20.2363 12.3799C20.2363 13.2099 19.5663 13.8799 18.7363 13.8799ZM17.7363 17.3799H19.7363V21.3799C19.7363 22.4799 18.8363 23.3799 17.7363 23.3799H7.73633C6.63633 23.3799 5.73633 22.4799 5.73633 21.3799V3.37988C5.73633 2.27988 6.63633 1.37988 7.73633 1.37988H17.7363C18.8363 1.37988 19.7363 2.27988 19.7363 3.37988V7.37988H17.7363V6.37988H7.73633V18.3799H17.7363V17.3799Z" fill="#323232"/>
</g>
<defs>
<clipPath id="clip0_2399_17167">
<rect width="24" height="24" fill="white" transform="translate(0.736328 0.379883)"/>
</clipPath>
</defs>
</svg>
