<svg width="10" height="16" viewBox="0 0 10 16" fill="none" xmlns="http://www.w3.org/2000/svg">
<g opacity="0.8">
<path d="M9.60547 1.48101C9.60547 1.12149 9.48426 0.761977 9.20143 0.522295C8.67618 0.00298449 7.7873 0.00298453 7.22164 0.522295L0.999409 6.67411C0.474156 7.19343 0.474156 8.07227 0.999409 8.63153C1.52466 9.15084 2.41356 9.15084 2.97922 8.63153L9.20143 2.47968C9.44385 2.20005 9.60547 1.84053 9.60547 1.48101Z" fill="#231F20"/>
</g>
<g opacity="0.8">
<path d="M9.60547 13.7442C9.60547 13.3847 9.48426 13.0251 9.20143 12.7854L2.97922 6.63362C2.45396 6.11431 1.56507 6.11431 0.999408 6.63362C0.474156 7.15293 0.474156 8.03175 0.999408 8.59101L7.22164 14.7429C7.7469 15.2622 8.63577 15.2622 9.20143 14.7429C9.44385 14.4632 9.60547 14.1037 9.60547 13.7442Z" fill="#231F20"/>
</g>
</svg>
