<svg width="10" height="16" viewBox="0 0 10 16" fill="none"
    xmlns="http://www.w3.org/2000/svg">
    <g opacity="0.8">
        <path d="M9.23633 1.61773C9.23633 1.2582 9.11512 0.898696 8.83229 0.659014C8.30703 0.139703 7.41816 0.139703 6.8525 0.659014L0.630268 6.81083C0.105015 7.33014 0.105015 8.20899 0.630268 8.76824C1.15552 9.28756 2.04442 9.28756 2.61008 8.76824L8.83229 2.6164C9.07471 2.33677 9.23633 1.97725 9.23633 1.61773Z" fill="white"/>
    </g>
    <g opacity="0.8">
        <path d="M9.23633 13.8814C9.23633 13.5219 9.11512 13.1623 8.83229 12.9226L2.61008 6.77083C2.08482 6.25152 1.19592 6.25152 0.630268 6.77083C0.105015 7.29014 0.105015 8.16896 0.630268 8.72822L6.8525 14.8801C7.37776 15.3994 8.26663 15.3994 8.83229 14.8801C9.07471 14.6004 9.23633 14.2409 9.23633 13.8814Z" fill="white"/>
    </g>
</svg>
