<svg width="19" height="19" viewBox="0 0 19 19" fill="none" xmlns="http://www.w3.org/2000/svg">
<path opacity="0.8" d="M6.50512 16.3012C5.93552 16.3012 5.36594 16.1179 4.98621 15.6904C4.16345 14.8963 4.16345 13.5524 4.98621 12.6973L14.7327 3.29039C15.5554 2.4963 16.9478 2.4963 17.8338 3.29039C18.6566 4.08447 18.6566 5.42832 17.8338 6.28349L8.08734 15.6904C7.64432 16.1179 7.07472 16.3012 6.50512 16.3012Z" fill="#02D6D3"/>
<path opacity="0.8" d="M6.6263 16.3046C6.0567 16.3046 5.48709 16.1213 5.10736 15.6937L1.18347 11.9065C0.360717 11.1125 0.360717 9.7686 1.18347 8.91343C2.00623 8.11935 3.39856 8.11935 4.28461 8.91343L8.20853 12.7006C9.03128 13.4947 9.03128 14.8385 8.20853 15.6937C7.76551 16.1213 7.1959 16.3046 6.6263 16.3046Z" fill="#02D6D3"/>
</svg>
