<svg width="25" height="22" viewBox="0 0 25 22" fill="none" xmlns="http://www.w3.org/2000/svg">
<path fill-rule="evenodd" clip-rule="evenodd" d="M2.56055 12.2658V0.0595703H22.3605C23.5169 0.0595703 24.4418 0.984505 24.4418 2.14082V5.9377C24.4418 7.09401 23.5169 8.01895 22.3605 8.01895H19.3793V12.2658C19.3793 14.8143 17.3153 16.8783 14.7668 16.8783H7.17305C4.62454 16.8783 2.56055 14.8143 2.56055 12.2658ZM17.748 1.69082H4.1918V12.2658C4.1918 13.9065 5.53233 15.2471 7.17305 15.2471H14.7668C16.4075 15.2471 17.748 13.9065 17.748 12.2658V1.69082ZM22.8105 1.69082H19.3793V6.3877H22.8105V1.69082ZM0.0292969 21.9408V20.3096H21.9105V21.9408H0.0292969Z" fill="#323232"/>
</svg>
