<svg width="86" height="85" viewBox="0 0 86 85" fill="none" xmlns="http://www.w3.org/2000/svg">
<path d="M85.5469 42.5C85.5469 65.9721 66.519 85 43.0469 85C19.5748 85 0.546875 65.9721 0.546875 42.5C0.546875 19.0279 19.5748 0 43.0469 0C66.519 0 85.5469 19.0279 85.5469 42.5ZM22.6469 42.5C22.6469 53.7666 31.7803 62.9 43.0469 62.9C54.3135 62.9 63.4469 53.7666 63.4469 42.5C63.4469 31.2334 54.3135 22.1 43.0469 22.1C31.7803 22.1 22.6469 31.2334 22.6469 42.5Z" fill="#BA89E1"/>
<path d="M43.0466 0C35.3984 -9.12041e-08 27.8919 2.06388 21.3188 5.97398C14.7456 9.88408 9.3494 15.4955 5.69922 22.2165L25.1199 32.7639C26.872 29.5378 29.4621 26.8444 32.6172 24.9675C35.7724 23.0907 39.3755 22.1 43.0466 22.1V0Z" fill="#BA89E1"/>
<path d="M6.2408 21.25C2.51064 27.7108 0.546875 35.0397 0.546875 42.5C0.546875 49.9603 2.51064 57.2892 6.2408 63.75L25.38 52.7C23.5895 49.5988 22.6469 46.0809 22.6469 42.5C22.6469 38.9191 23.5895 35.4012 25.38 32.3L6.2408 21.25Z" fill="#BA89E1"/>
<path d="M6.2408 63.75C9.97095 70.2108 15.3361 75.5759 21.7969 79.3061C28.2577 83.0362 35.5866 85 43.0469 85L43.0469 62.9C39.4659 62.9 35.9481 61.9574 32.8469 60.1669C29.7457 58.3764 27.1704 55.8012 25.38 52.7L6.2408 63.75Z" fill="#BA89E1"/>
<path d="M43.0469 85C50.5072 85 57.8361 83.0362 64.2969 79.3061C70.7577 75.5759 76.1228 70.2108 79.853 63.75L60.7138 52.7C58.9233 55.8012 56.3481 58.3764 53.2469 60.1669C50.1457 61.9574 46.6278 62.9 43.0469 62.9V85Z" fill="#BA89E1"/>
<path d="M79.853 63.75C83.5831 57.2892 85.5469 49.9603 85.5469 42.5C85.5469 35.0397 83.5831 27.7108 79.853 21.25L60.7138 32.3C62.5043 35.4012 63.4469 38.9191 63.4469 42.5C63.4469 46.0809 62.5043 49.5988 60.7138 52.7L79.853 63.75Z" fill="#BA89E1"/>
<path d="M79.8528 21.25C76.1229 14.7895 70.7581 9.42462 64.2977 5.69449C57.8374 1.96435 50.509 0.000398492 43.049 0L43.0479 22.1C46.6286 22.1002 50.1462 23.0429 53.2472 24.8334C56.3482 26.6238 58.9233 29.199 60.7137 32.3L79.8528 21.25Z" fill="#BA89E1"/>
</svg>
