<svg width="41" height="41" viewBox="0 0 41 41" fill="none" xmlns="http://www.w3.org/2000/svg">
<path d="M17.6167 3.28955C13.667 3.28955 10.4482 6.5084 10.4482 10.458C10.4482 12.0137 10.9102 13.6727 11.7921 14.9009C11.916 15.0725 12.103 15.1881 12.3119 15.222C12.5208 15.2559 12.7344 15.2053 12.9061 15.0814C13.0778 14.9575 13.1933 14.7708 13.227 14.5619C13.2608 14.353 13.2103 14.1391 13.0867 13.9675C12.4666 13.1043 12.041 11.6737 12.041 10.458C12.041 7.36918 14.5279 4.8824 17.6167 4.8824C20.7052 4.8824 23.192 7.36925 23.192 10.458C23.192 11.6737 22.7667 13.1043 22.1467 13.9675C22.0228 14.1391 21.9722 14.353 22.0061 14.5619C22.04 14.7708 22.1553 14.9575 22.327 15.0814C22.4987 15.2053 22.7126 15.2559 22.9215 15.222C23.1304 15.1881 23.3173 15.0725 23.4409 14.9009C24.3232 13.6727 24.7852 12.0137 24.7852 10.458C24.7852 6.50833 21.566 3.28955 17.6167 3.28955H17.6167ZM17.6167 7.27204C15.8621 7.27204 14.4306 8.69436 14.4306 10.4581V20.6632L14.3559 20.4888C14.3484 20.4679 14.3403 20.4471 14.3312 20.4266C13.6214 19.1098 12.8347 18.3706 11.9415 18.1242C11.0484 17.8781 10.2345 18.185 9.65166 18.5225C9.63888 18.5306 9.62638 18.5387 9.61415 18.5475C8.9705 18.9767 8.38072 19.5321 8.1582 20.3271C7.93568 21.1222 8.08347 22.0005 8.50655 23.0901C8.51072 23.0984 8.51489 23.1067 8.51905 23.1148L9.71387 25.9025C9.71776 25.9111 9.72193 25.9191 9.72637 25.9275C11.9938 30.7023 14.1723 34.0098 16.2102 36.4562C16.3613 36.637 16.5843 36.7418 16.8202 36.7423H27.5729C27.7438 36.7406 27.9096 36.684 28.0457 36.5806C30.3098 34.9036 31.9215 30.9953 32.526 27.2837C32.8283 25.428 32.861 23.6212 32.4141 22.1314C31.9671 20.6416 30.8801 19.4096 29.253 19.2192C29.2239 19.2176 29.195 19.2176 29.1658 19.2192C28.8836 19.2192 28.5269 19.232 28.1577 19.3062C28.1382 19.3104 28.1155 19.3148 28.0955 19.3187C27.8913 18.8314 27.6165 18.4134 27.2618 18.1614C26.6664 17.7386 26.06 17.6181 25.5691 17.6261C25.1035 17.6339 24.6649 17.7867 24.2874 18.0495C24.1174 17.7925 23.9365 17.5386 23.7149 17.3772C23.1245 16.9486 22.4962 16.8297 21.9973 16.8297C21.5847 16.8297 21.1853 16.9316 20.8027 17.0911C20.7991 14.9243 20.7997 12.1177 20.8027 10.4579C20.8058 8.69252 19.3712 7.27183 17.6167 7.27183L17.6167 7.27204ZM17.6167 8.8649C18.5559 8.8649 19.2112 9.49994 19.2095 10.4456C19.2059 12.5355 19.1987 16.8602 19.2095 18.8209C19.2101 19.1943 19.4695 19.5171 19.834 19.5976C20.1985 19.6782 20.5699 19.4951 20.7279 19.1571C20.9041 18.7909 21.5666 18.4229 21.9972 18.4229C22.1906 18.4229 22.5495 18.4906 22.7814 18.6593C23.0134 18.8276 23.192 19.0373 23.192 19.6174C23.1984 19.983 23.4528 20.2974 23.809 20.3797C24.1651 20.4622 24.5315 20.2916 24.6979 19.9661C25.0218 19.318 25.1952 19.226 25.5941 19.2193C25.7044 19.2193 26.0911 19.2785 26.3408 19.4557C26.5903 19.633 26.7764 19.8491 26.7764 20.4142C26.7831 20.7259 26.9714 21.0053 27.2581 21.1284C27.5448 21.2517 27.8768 21.1962 28.1079 20.9864C28.0887 21.0045 28.2471 20.9192 28.4688 20.8745C28.6788 20.8323 28.9346 20.8142 29.1285 20.8123C30.0699 20.9453 30.5558 21.5009 30.8834 22.5921C31.2184 23.7088 31.2348 25.322 30.9578 27.0224C30.4203 30.3234 28.7224 33.9123 27.2368 35.1495H17.2307C15.3465 32.8441 13.3236 29.7722 11.1823 25.268C11.1781 25.2588 11.1742 25.2518 11.1698 25.243L9.99997 22.505C9.99581 22.4939 9.99192 22.4908 9.98747 22.48C9.63745 21.5683 9.60606 21.046 9.68884 20.7502C9.77163 20.4546 9.9897 20.2243 10.4853 19.8915C10.4914 19.8876 10.4917 19.8832 10.4978 19.879C10.8856 19.6623 11.2095 19.5698 11.5184 19.6551C11.8396 19.7434 12.3341 20.0849 12.9246 21.1733C12.9282 21.1802 12.9335 21.1791 12.9371 21.1858L14.4928 24.7202C14.6408 25.0724 15.0181 25.2699 15.3917 25.191C15.7657 25.1119 16.0307 24.7788 16.0234 24.3968V10.4581C16.0234 9.51084 16.6774 8.86497 17.6166 8.86497L17.6167 8.8649Z" fill="#2F383D"/>
</svg>
