<svg width="16" height="16" viewBox="0 0 16 16" fill="none" xmlns="http://www.w3.org/2000/svg">
<path d="M4 0C3.45 0 3 0.45 3 1V15C3 15.55 3.45 16 4 16H14C14.55 16 15 15.55 15 15V4L11 0H4Z" fill="#E2E5E7"/>
<path d="M12 4H15L11 0V3C11 3.55 11.45 4 12 4Z" fill="#B0B7BD"/>
<path d="M15 7L12 4H15V7Z" fill="#CAD1D8"/>
<path d="M13 13C13 13.275 12.775 13.5 12.5 13.5H1.5C1.225 13.5 1 13.275 1 13V8C1 7.725 1.225 7.5 1.5 7.5H12.5C12.775 7.5 13 7.725 13 8V13Z" fill="#3586CB"/>
<path d="M5.26946 9.4695V9.85625H4.50821V12H4.03746V9.85625H3.27271V9.4695H5.26946ZM6.17501 10.698L5.36826 9.4695H5.83726C5.86992 9.4695 5.89326 9.47417 5.90726 9.4835C5.92242 9.49167 5.93584 9.50567 5.94751 9.5255L6.52326 10.4547C6.52909 10.4396 6.53551 10.425 6.54251 10.411C6.54951 10.3958 6.55767 10.3807 6.56701 10.3655L7.09376 9.53425C7.11942 9.49108 7.15267 9.4695 7.19351 9.4695H7.64501L6.82951 10.6787L7.66776 12H7.19701C7.16551 12 7.13984 11.9918 7.12001 11.9755C7.10134 11.9592 7.08559 11.9405 7.07276 11.9195L6.48651 10.95C6.48184 10.964 6.47659 10.9774 6.47076 10.9902C6.46492 11.0019 6.45909 11.013 6.45326 11.0235L5.89151 11.9195C5.87867 11.9393 5.86292 11.958 5.84426 11.9755C5.82559 11.9918 5.80226 12 5.77426 12H5.33326L6.17501 10.698ZM9.72649 9.4695V9.85625H8.96524V12H8.49449V9.85625H7.72974V9.4695H9.72649Z" fill="white"/>
<path d="M12.5 13.5H3V14H12.5C12.775 14 13 13.775 13 13.5V13C13 13.275 12.775 13.5 12.5 13.5Z" fill="#CAD1D8"/>
</svg>
