<svg width="16" height="16" viewBox="0 0 16 16" fill="none" xmlns="http://www.w3.org/2000/svg">
<path d="M4 0C3.45 0 3 0.45 3 1V15C3 15.55 3.45 16 4 16H14C14.55 16 15 15.55 15 15V4L11 0H4Z" fill="#E2E5E7"/>
<path d="M12 4H15L11 0V3C11 3.55 11.45 4 12 4Z" fill="#B0B7BD"/>
<path d="M15 7L12 4H15V7Z" fill="#CAD1D8"/>
<path d="M8.7 13.5H3V14H8.7C8.865 14 9 13.775 9 13.5V13C9 13.275 8.865 13.5 8.7 13.5Z" fill="#CAD1D8"/>
<g clip-path="url(#clip0_1987_23491)">
<path d="M1.57132 5.5H8.42819C8.74336 5.5 8.99976 5.7564 8.99976 6.07156V13.1766C8.99976 13.3549 8.8547 13.5 8.67638 13.5H1.57132C1.25615 13.5 0.999756 13.2436 0.999756 12.9284V6.07156C0.999756 5.7564 1.25615 5.5 1.57132 5.5ZM6.58236 6.47393C5.90151 6.47393 5.34758 7.02785 5.34758 7.7087C5.34758 8.38955 5.90151 8.94348 6.58236 8.94348C7.26321 8.94348 7.81713 8.38955 7.81713 7.7087C7.81713 7.02785 7.26321 6.47393 6.58236 6.47393ZM1.95213 12.3385C1.99794 12.422 2.08561 12.4739 2.18085 12.4739H7.81867C7.91392 12.4739 8.00159 12.422 8.04738 12.3385C8.09319 12.255 8.08985 12.1532 8.03866 12.0728L6.69794 9.96878C6.65004 9.89362 6.56709 9.8481 6.47794 9.8481C6.38879 9.8481 6.30584 9.89362 6.25794 9.96878L5.61396 10.9794L4.35578 9.00487C4.30788 8.92969 4.22492 8.88419 4.13578 8.88419C4.04665 8.88419 3.96367 8.92971 3.91578 9.00487L1.96085 12.0728C1.90966 12.1532 1.90633 12.255 1.95213 12.3385Z" fill="#774ACC"/>
</g>
<defs>
<clipPath id="clip0_1987_23491">
<rect width="8" height="8" fill="white" transform="matrix(-1 0 0 1 9 5.5)"/>
</clipPath>
</defs>
</svg>
