<svg width="16" height="16" viewBox="0 0 16 16" fill="none" xmlns="http://www.w3.org/2000/svg">
<path d="M4 0C3.45 0 3 0.45 3 1V15C3 15.55 3.45 16 4 16H14C14.55 16 15 15.55 15 15V4L11 0H4Z" fill="#E2E5E7"/>
<path d="M12 4H15L11 0V3C11 3.55 11.45 4 12 4Z" fill="#B0B7BD"/>
<path d="M15 7L12 4H15V7Z" fill="#CAD1D8"/>
<path d="M13 13C13 13.275 12.775 13.5 12.5 13.5H1.5C1.225 13.5 1 13.275 1 13V8C1 7.725 1.225 7.5 1.5 7.5H12.5C12.775 7.5 13 7.725 13 8V13Z" fill="#F55B4B"/>
<path d="M3.85821 11.1092V12H3.38746V9.4695H4.21171C4.38088 9.4695 4.52729 9.48933 4.65096 9.529C4.77463 9.56867 4.87671 9.62408 4.95721 9.69525C5.03771 9.76642 5.09721 9.85158 5.13571 9.95075C5.17421 10.0499 5.19346 10.1584 5.19346 10.2762C5.19346 10.3987 5.17304 10.5113 5.13221 10.614C5.09138 10.7155 5.03013 10.803 4.94846 10.8765C4.86679 10.95 4.76471 11.0072 4.64221 11.048C4.51971 11.0888 4.37621 11.1092 4.21171 11.1092H3.85821ZM3.85821 10.7417H4.21171C4.29804 10.7417 4.37329 10.7312 4.43746 10.7102C4.50163 10.6881 4.55471 10.6572 4.59671 10.6175C4.63871 10.5767 4.67021 10.5277 4.69121 10.4705C4.71221 10.4122 4.72271 10.3474 4.72271 10.2762C4.72271 10.2086 4.71221 10.1473 4.69121 10.0925C4.67021 10.0377 4.63871 9.991 4.59671 9.9525C4.55471 9.914 4.50163 9.88483 4.43746 9.865C4.37329 9.844 4.29804 9.8335 4.21171 9.8335H3.85821V10.7417ZM7.80621 10.7347C7.80621 10.9202 7.77529 11.0906 7.71346 11.2457C7.65163 11.4009 7.56471 11.5345 7.45271 11.6465C7.34071 11.7585 7.20596 11.8454 7.04846 11.9072C6.89096 11.9691 6.71654 12 6.52521 12H5.55921V9.4695H6.52521C6.71654 9.4695 6.89096 9.501 7.04846 9.564C7.20596 9.62583 7.34071 9.71275 7.45271 9.82475C7.56471 9.93558 7.65163 10.0686 7.71346 10.2237C7.77529 10.3789 7.80621 10.5492 7.80621 10.7347ZM7.32496 10.7347C7.32496 10.5959 7.30629 10.4717 7.26896 10.362C7.23163 10.2512 7.17854 10.1578 7.10971 10.082C7.04088 10.005 6.95688 9.94608 6.85771 9.90525C6.75971 9.86442 6.64888 9.844 6.52521 9.844H6.03346V11.6255H6.52521C6.64888 11.6255 6.75971 11.6051 6.85771 11.5642C6.95688 11.5234 7.04088 11.4651 7.10971 11.3892C7.17854 11.3122 7.23163 11.2189 7.26896 11.1092C7.30629 10.9984 7.32496 10.8736 7.32496 10.7347ZM9.76996 9.4695V9.844H8.64821V10.593H9.59496V10.9692H8.64821V12H8.17396V9.4695H9.76996Z" fill="white"/>
<path d="M12.5 13.5H3V14H12.5C12.775 14 13 13.775 13 13.5V13C13 13.275 12.775 13.5 12.5 13.5Z" fill="#CAD1D8"/>
</svg>
