<svg width="16" height="16" viewBox="0 0 16 16" fill="none" xmlns="http://www.w3.org/2000/svg">
<path d="M4 0C3.45 0 3 0.45 3 1V15C3 15.55 3.45 16 4 16H14C14.55 16 15 15.55 15 15V4L11 0H4Z" fill="#E2E5E7"/>
<path d="M8.89806 9.27726C8.40313 9.27726 8 8.87425 8 8.37946V0H9.79611V8.37946C9.79611 8.87425 9.39299 9.27726 8.89806 9.27726Z" fill="#4F4F74"/>
<path d="M9.32547 0.75826H8.46733C8.34759 0.75826 8.2478 0.658505 8.2478 0.538798C8.2478 0.419091 8.34759 0.319336 8.46733 0.319336H9.32547C9.44521 0.319336 9.545 0.419091 9.545 0.538798C9.545 0.658505 9.4492 0.75826 9.32547 0.75826Z" fill="#B9B9BA"/>
<path d="M9.06978 1.50435H8.73051C8.61077 1.50435 8.51099 1.4046 8.51099 1.28489C8.51099 1.16519 8.61077 1.06543 8.73051 1.06543H9.06978C9.18952 1.06543 9.2893 1.16519 9.2893 1.28489C9.2893 1.40859 9.18952 1.50435 9.06978 1.50435Z" fill="#B9B9BA"/>
<path d="M9.32547 2.21041H8.46733C8.34759 2.21041 8.2478 2.11065 8.2478 1.99095C8.2478 1.87124 8.34759 1.77148 8.46733 1.77148H9.32547C9.44521 1.77148 9.545 1.87124 9.545 1.99095C9.545 2.11464 9.4492 2.21041 9.32547 2.21041Z" fill="#B9B9BA"/>
<path d="M9.06978 2.96041H8.73051C8.61077 2.96041 8.51099 2.86065 8.51099 2.74095C8.51099 2.62124 8.61077 2.52148 8.73051 2.52148H9.06978C9.18952 2.52148 9.2893 2.62124 9.2893 2.74095C9.2893 2.86065 9.18952 2.96041 9.06978 2.96041Z" fill="#B9B9BA"/>
<path d="M9.32547 3.66744H8.46733C8.34759 3.66744 8.2478 3.56768 8.2478 3.44798C8.2478 3.32827 8.34759 3.22852 8.46733 3.22852H9.32547C9.44521 3.22852 9.545 3.32827 9.545 3.44798C9.545 3.57167 9.4492 3.66744 9.32547 3.66744Z" fill="#B9B9BA"/>
<path d="M9.06978 4.41744H8.73051C8.61077 4.41744 8.51099 4.31768 8.51099 4.19798C8.51099 4.07827 8.61077 3.97852 8.73051 3.97852H9.06978C9.18952 3.97852 9.2893 4.07827 9.2893 4.19798C9.2893 4.31768 9.18952 4.41744 9.06978 4.41744Z" fill="#B9B9BA"/>
<path d="M9.32547 5.12349H8.46733C8.34759 5.12349 8.2478 5.02374 8.2478 4.90403C8.2478 4.78433 8.34759 4.68457 8.46733 4.68457H9.32547C9.44521 4.68457 9.545 4.78433 9.545 4.90403C9.545 5.02773 9.4492 5.12349 9.32547 5.12349Z" fill="#B9B9BA"/>
<path d="M9.06978 5.87349H8.73051C8.61077 5.87349 8.51099 5.77374 8.51099 5.65403C8.51099 5.53433 8.61077 5.43457 8.73051 5.43457H9.06978C9.18952 5.43457 9.2893 5.53433 9.2893 5.65403C9.2893 5.77374 9.18952 5.87349 9.06978 5.87349Z" fill="#B9B9BA"/>
<path d="M9.32547 6.57955H8.46733C8.34759 6.57955 8.2478 6.47979 8.2478 6.36009C8.2478 6.24038 8.34759 6.14062 8.46733 6.14062H9.32547C9.44521 6.14062 9.545 6.24038 9.545 6.36009C9.545 6.47979 9.4492 6.57955 9.32547 6.57955Z" fill="#B9B9BA"/>
<path d="M9.06978 7.32662H8.73051C8.61077 7.32662 8.51099 7.22686 8.51099 7.10716C8.51099 6.98745 8.61077 6.8877 8.73051 6.8877H9.06978C9.18952 6.8877 9.2893 6.98745 9.2893 7.10716C9.2893 7.23085 9.18952 7.32662 9.06978 7.32662Z" fill="#B9B9BA"/>
<path d="M9.19761 7.32617H8.5989C8.43925 7.32617 8.31152 7.45386 8.31152 7.61347V7.87283C8.31152 8.03244 8.43925 8.16013 8.5989 8.16013H8.60689L8.555 8.50329L8.4153 9.433C8.37139 9.72828 8.5989 9.99563 8.89825 9.99563C9.19761 9.99563 9.42511 9.72828 9.38121 9.433L9.24151 8.50329L9.18962 8.16013H9.2016C9.36125 8.16013 9.48898 8.03244 9.48898 7.87283V7.61347C9.48498 7.45785 9.35726 7.32617 9.19761 7.32617ZM9.13374 9.56069C9.13374 9.62055 9.08585 9.67242 9.02199 9.67242H8.77053C8.71066 9.67242 8.65877 9.62454 8.65877 9.56069V9.19359C8.65877 9.13374 8.70667 9.08187 8.77053 9.08187H9.02199C9.08186 9.08187 9.13374 9.12975 9.13374 9.19359V9.56069Z" fill="#D9D9DB"/>
<path d="M9.24145 8.50722H8.55493L8.60682 8.16406H9.18557L9.24145 8.50722Z" fill="#BFBFBF"/>
<path d="M12 4H15L11 0V3C11 3.55 11.45 4 12 4Z" fill="#B0B7BD"/>
<path d="M15 7L12 4H15V7Z" fill="#CAD1D8"/>
<path d="M8.33913 11.4695V11.6427C8.33913 11.6964 8.32396 11.7454 8.29363 11.7897L6.99513 13.6237H8.30763V14H6.38438V13.8145C6.38438 13.7912 6.38846 13.769 6.39663 13.748C6.4048 13.7258 6.4153 13.7054 6.42813 13.6867L7.73013 11.844H6.46663V11.4695H8.33913ZM9.22179 14H8.74929V11.4695H9.22179V14ZM10.2786 13.1092V14H9.80787V11.4695H10.6321C10.8013 11.4695 10.9477 11.4893 11.0714 11.529C11.195 11.5687 11.2971 11.6241 11.3776 11.6952C11.4581 11.7664 11.5176 11.8516 11.5561 11.9507C11.5946 12.0499 11.6139 12.1584 11.6139 12.2762C11.6139 12.3987 11.5935 12.5113 11.5526 12.614C11.5118 12.7155 11.4505 12.803 11.3689 12.8765C11.2872 12.95 11.1851 13.0072 11.0626 13.048C10.9401 13.0888 10.7966 13.1092 10.6321 13.1092H10.2786ZM10.2786 12.7417H10.6321C10.7185 12.7417 10.7937 12.7312 10.8579 12.7102C10.922 12.6881 10.9751 12.6572 11.0171 12.6175C11.0591 12.5767 11.0906 12.5277 11.1116 12.4705C11.1326 12.4122 11.1431 12.3474 11.1431 12.2762C11.1431 12.2086 11.1326 12.1473 11.1116 12.0925C11.0906 12.0377 11.0591 11.991 11.0171 11.9525C10.9751 11.914 10.922 11.8848 10.8579 11.865C10.7937 11.844 10.7185 11.8335 10.6321 11.8335H10.2786V12.7417Z" fill="#1F2A36"/>
</svg>
