<svg width="16" height="16" viewBox="0 0 16 16" fill="none" xmlns="http://www.w3.org/2000/svg">
<path d="M4 0C3.45 0 3 0.45 3 1V15C3 15.55 3.45 16 4 16H14C14.55 16 15 15.55 15 15V4L11 0H4Z" fill="#E2E5E7"/>
<path d="M12 4H15L11 0V3C11 3.55 11.45 4 12 4Z" fill="#B0B7BD"/>
<path d="M15 7L12 4H15V7Z" fill="#CAD1D8"/>
<path d="M13 13C13 13.275 12.775 13.5 12.5 13.5H1.5C1.225 13.5 1 13.275 1 13V8C1 7.725 1.225 7.5 1.5 7.5H12.5C12.775 7.5 13 7.725 13 8V13Z" fill="#84BD5A"/>
<path d="M4.33272 10.698L3.52597 9.4695H3.99497C4.02764 9.4695 4.05097 9.47417 4.06497 9.4835C4.08014 9.49167 4.09355 9.50567 4.10522 9.5255L4.68097 10.4547C4.6868 10.4396 4.69322 10.425 4.70022 10.411C4.70722 10.3958 4.71539 10.3807 4.72472 10.3655L5.25147 9.53425C5.27714 9.49108 5.31039 9.4695 5.35122 9.4695H5.80272L4.98722 10.6787L5.82547 12H5.35472C5.32322 12 5.29755 11.9918 5.27772 11.9755C5.25905 11.9592 5.2433 11.9405 5.23047 11.9195L4.64422 10.95C4.63955 10.964 4.6343 10.9774 4.62847 10.9902C4.62264 11.0019 4.6168 11.013 4.61097 11.0235L4.04922 11.9195C4.03639 11.9393 4.02064 11.958 4.00197 11.9755C3.9833 11.9918 3.95997 12 3.93197 12H3.49097L4.33272 10.698ZM6.57171 11.6115H7.58496V12H6.10096V9.4695H6.57171V11.6115ZM9.26531 9.92975C9.25248 9.95542 9.23731 9.9735 9.21981 9.984C9.20348 9.9945 9.18365 9.99975 9.16031 9.99975C9.13698 9.99975 9.11073 9.991 9.08156 9.9735C9.0524 9.95483 9.01798 9.93442 8.97831 9.91225C8.93865 9.89008 8.89198 9.87025 8.83831 9.85275C8.78581 9.83408 8.7234 9.82475 8.65106 9.82475C8.58573 9.82475 8.52856 9.83292 8.47956 9.84925C8.43173 9.86442 8.3909 9.886 8.35706 9.914C8.3244 9.942 8.2999 9.97583 8.28356 10.0155C8.26723 10.054 8.25906 10.0966 8.25906 10.1432C8.25906 10.2027 8.2754 10.2523 8.30806 10.292C8.3419 10.3317 8.38623 10.3655 8.44106 10.3935C8.4959 10.4215 8.55831 10.4466 8.62831 10.4687C8.69831 10.4909 8.76948 10.5148 8.84181 10.5405C8.91531 10.565 8.98706 10.5942 9.05706 10.628C9.12706 10.6607 9.18948 10.7027 9.24431 10.754C9.29915 10.8042 9.3429 10.866 9.37556 10.9395C9.4094 11.013 9.42631 11.1022 9.42631 11.2072C9.42631 11.3216 9.40648 11.4289 9.36681 11.5292C9.32831 11.6284 9.27115 11.7153 9.19531 11.79C9.12065 11.8635 9.02906 11.9218 8.92056 11.965C8.81206 12.007 8.68781 12.028 8.54781 12.028C8.46731 12.028 8.38798 12.0198 8.30981 12.0035C8.23165 11.9883 8.1564 11.9662 8.08406 11.937C8.0129 11.9078 7.94581 11.8728 7.88281 11.832C7.82098 11.7912 7.76556 11.7457 7.71656 11.6955L7.85306 11.4697C7.8659 11.4534 7.88106 11.44 7.89856 11.4295C7.91723 11.4178 7.93765 11.412 7.95981 11.412C7.98898 11.412 8.02048 11.4242 8.05431 11.4487C8.08815 11.4721 8.12781 11.4983 8.17331 11.5275C8.21998 11.5567 8.27423 11.5835 8.33606 11.608C8.39906 11.6313 8.47431 11.643 8.56181 11.643C8.69598 11.643 8.79981 11.6115 8.87331 11.5485C8.94681 11.4843 8.98356 11.3927 8.98356 11.2737C8.98356 11.2072 8.96665 11.153 8.93281 11.111C8.90015 11.069 8.8564 11.034 8.80156 11.006C8.74673 10.9768 8.68431 10.9523 8.61431 10.9325C8.54431 10.9127 8.47315 10.8911 8.40081 10.8677C8.32848 10.8444 8.25731 10.8164 8.18731 10.7837C8.11731 10.7511 8.0549 10.7085 8.00006 10.656C7.94523 10.6035 7.9009 10.5382 7.86706 10.46C7.8344 10.3807 7.81806 10.2832 7.81806 10.1677C7.81806 10.0756 7.83615 9.98575 7.87231 9.89825C7.90965 9.81075 7.96331 9.73317 8.03331 9.6655C8.10448 9.59783 8.1914 9.54358 8.29406 9.50275C8.39673 9.46192 8.51398 9.4415 8.64581 9.4415C8.79515 9.4415 8.93281 9.46483 9.05881 9.5115C9.18481 9.55817 9.29215 9.6235 9.38081 9.7075L9.26531 9.92975Z" fill="white"/>
<path d="M12.5 13.5H3V14H12.5C12.775 14 13 13.775 13 13.5V13C13 13.275 12.775 13.5 12.5 13.5Z" fill="#CAD1D8"/>
</svg>
