<svg width="16" height="16" viewBox="0 0 16 16" fill="none" xmlns="http://www.w3.org/2000/svg">
<path d="M4 0C3.45 0 3 0.45 3 1V15C3 15.55 3.45 16 4 16H14C14.55 16 15 15.55 15 15V4L11 0H4Z" fill="#E2E5E7"/>
<path d="M12 4H15L11 0V3C11 3.55 11.45 4 12 4Z" fill="#B0B7BD"/>
<path d="M15 7L12 4H15V7Z" fill="#CAD1D8"/>
<path d="M13 13C13 13.275 12.775 13.5 12.5 13.5H1.5C1.225 13.5 1 13.275 1 13V8C1 7.725 1.225 7.5 1.5 7.5H12.5C12.775 7.5 13 7.725 13 8V13Z" fill="#3586CB"/>
<path d="M5.6214 10.7347C5.6214 10.9202 5.59048 11.0906 5.52865 11.2457C5.46681 11.4009 5.3799 11.5345 5.2679 11.6465C5.1559 11.7585 5.02115 11.8454 4.86365 11.9072C4.70615 11.9691 4.53173 12 4.3404 12H3.3744V9.4695H4.3404C4.53173 9.4695 4.70615 9.501 4.86365 9.564C5.02115 9.62583 5.1559 9.71275 5.2679 9.82475C5.3799 9.93558 5.46681 10.0686 5.52865 10.2237C5.59048 10.3789 5.6214 10.5492 5.6214 10.7347ZM5.14015 10.7347C5.14015 10.5959 5.12148 10.4717 5.08415 10.362C5.04681 10.2512 4.99373 10.1578 4.9249 10.082C4.85606 10.005 4.77206 9.94608 4.6729 9.90525C4.5749 9.86442 4.46406 9.844 4.3404 9.844H3.84865V11.6255H4.3404C4.46406 11.6255 4.5749 11.6051 4.6729 11.5642C4.77206 11.5234 4.85606 11.4651 4.9249 11.3892C4.99373 11.3122 5.04681 11.2189 5.08415 11.1092C5.12148 10.9984 5.14015 10.8736 5.14015 10.7347ZM8.41639 10.7347C8.41639 10.9202 8.38548 11.0923 8.32364 11.251C8.26181 11.4085 8.17489 11.545 8.06289 11.6605C7.95089 11.776 7.81614 11.8664 7.65864 11.9317C7.50114 11.9959 7.32673 12.028 7.13539 12.028C6.94406 12.028 6.76906 11.9959 6.61039 11.9317C6.45289 11.8664 6.31756 11.776 6.20439 11.6605C6.09239 11.545 6.00548 11.4085 5.94364 11.251C5.88181 11.0923 5.85089 10.9202 5.85089 10.7347C5.85089 10.5492 5.88181 10.3777 5.94364 10.2202C6.00548 10.0616 6.09239 9.9245 6.20439 9.809C6.31756 9.6935 6.45289 9.60367 6.61039 9.5395C6.76906 9.47417 6.94406 9.4415 7.13539 9.4415C7.32673 9.4415 7.50114 9.47417 7.65864 9.5395C7.81614 9.60483 7.95089 9.69525 8.06289 9.81075C8.17489 9.92508 8.26181 10.0616 8.32364 10.2202C8.38548 10.3777 8.41639 10.5492 8.41639 10.7347ZM7.93339 10.7347C7.93339 10.5959 7.91473 10.4717 7.87739 10.362C7.84123 10.2512 7.78873 10.1572 7.71989 10.0802C7.65106 10.0032 7.56706 9.94433 7.46789 9.9035C7.36989 9.86267 7.25906 9.84225 7.13539 9.84225C7.01173 9.84225 6.90031 9.86267 6.80114 9.9035C6.70198 9.94433 6.61739 10.0032 6.54739 10.0802C6.47856 10.1572 6.42548 10.2512 6.38814 10.362C6.35081 10.4717 6.33214 10.5959 6.33214 10.7347C6.33214 10.8736 6.35081 10.9984 6.38814 11.1092C6.42548 11.2189 6.47856 11.3122 6.54739 11.3892C6.61739 11.4651 6.70198 11.5234 6.80114 11.5642C6.90031 11.6051 7.01173 11.6255 7.13539 11.6255C7.25906 11.6255 7.36989 11.6051 7.46789 11.5642C7.56706 11.5234 7.65106 11.4651 7.71989 11.3892C7.78873 11.3122 7.84123 11.2189 7.87739 11.1092C7.91473 10.9984 7.93339 10.8736 7.93339 10.7347ZM10.528 11.4032C10.5536 11.4032 10.5758 11.4132 10.5945 11.433L10.78 11.6342C10.6773 11.7614 10.5507 11.8588 10.4002 11.9265C10.2509 11.9942 10.0712 12.028 9.86121 12.028C9.67338 12.028 9.50421 11.9959 9.35371 11.9317C9.20438 11.8676 9.07663 11.7783 8.97046 11.664C8.86429 11.5497 8.78263 11.4132 8.72546 11.2545C8.66946 11.0958 8.64146 10.9226 8.64146 10.7347C8.64146 10.5446 8.67296 10.3707 8.73596 10.2132C8.79896 10.0546 8.88763 9.91808 9.00196 9.80375C9.11629 9.68942 9.25279 9.60075 9.41146 9.53775C9.57129 9.47358 9.74746 9.4415 9.93996 9.4415C10.1278 9.4415 10.2917 9.47183 10.4317 9.5325C10.5729 9.592 10.6936 9.67133 10.794 9.7705L10.6365 9.98925C10.6271 10.0032 10.6149 10.0155 10.5997 10.026C10.5857 10.0365 10.5659 10.0417 10.5402 10.0417C10.5134 10.0417 10.486 10.0312 10.458 10.0102C10.43 9.98925 10.3944 9.9665 10.3512 9.942C10.308 9.9175 10.2532 9.89475 10.1867 9.87375C10.1214 9.85275 10.038 9.84225 9.93646 9.84225C9.81746 9.84225 9.70779 9.86325 9.60746 9.90525C9.50829 9.94608 9.42254 10.005 9.35021 10.082C9.27904 10.159 9.22304 10.2529 9.18221 10.3637C9.14254 10.4734 9.12271 10.5971 9.12271 10.7347C9.12271 10.8771 9.14254 11.0037 9.18221 11.1145C9.22304 11.2253 9.27788 11.3187 9.34671 11.3945C9.41554 11.4703 9.49663 11.5287 9.58996 11.5695C9.68329 11.6092 9.78363 11.629 9.89096 11.629C9.95513 11.629 10.0129 11.6255 10.0642 11.6185C10.1167 11.6115 10.1645 11.6004 10.2077 11.5852C10.252 11.5701 10.2935 11.5508 10.332 11.5275C10.3716 11.503 10.4107 11.4732 10.4492 11.4382C10.4609 11.4277 10.4731 11.4196 10.486 11.4137C10.4988 11.4067 10.5128 11.4032 10.528 11.4032Z" fill="white"/>
<path d="M12.5 13.5H3V14H12.5C12.775 14 13 13.775 13 13.5V13C13 13.275 12.775 13.5 12.5 13.5Z" fill="#CAD1D8"/>
</svg>
