<svg width="19" height="19" viewBox="0 0 19 19" fill="none" xmlns="http://www.w3.org/2000/svg">
<path opacity="0.8" d="m 6.50512,16.3012 c -0.5696,0 -1.13918,-0.1833 -1.51891,-0.6108 -0.82276,-0.7941 -0.82276,-2.138 0,-2.9931 L 14.7327,3.29039 c 0.8227,-0.79409 2.2151,-0.79409 3.1011,0 0.8228,0.79408 0.8228,2.13793 0,2.9931 L 8.08734,15.6904 c -0.44302,0.4275 -1.01262,0.6108 -1.58222,0.6108 z" fill="#0bcd5c"/>
<path opacity="0.8" d="m 6.6263,16.3046 c -0.5696,0 -1.13921,-0.1833 -1.51894,-0.6109 L 1.18347,11.9065 c -0.822753,-0.794 -0.822753,-2.1379 0,-2.99307 0.82276,-0.79408 2.21509,-0.79408 3.10114,0 l 3.92392,3.78717 c 0.82275,0.7941 0.82275,2.1379 0,2.9931 -0.44302,0.4276 -1.01263,0.6109 -1.58223,0.6109 z" fill="#0bcd5c"/>
</svg>
