<svg width="36" height="36" viewBox="0 0 36 36" fill="none" xmlns="http://www.w3.org/2000/svg">
<path d="M18 11.3317L27.113 27.0767H8.88698L18 11.3317ZM18 6.50285L4.6875 29.4971H31.3125L18 6.50285ZM19.2102 23.446H16.7898V25.8665H19.2102V23.446ZM19.2102 16.1847H16.7898V21.0256H19.2102V16.1847Z" fill="#323232"/>
<path fill-rule="evenodd" clip-rule="evenodd" d="M17.9999 5.94151L31.8002 29.7784H4.19965L17.9999 5.94151ZM5.17527 29.2159H30.8246L17.9999 7.06419L5.17527 29.2159ZM17.9999 10.7702L27.6007 27.3579H8.3992L17.9999 10.7702ZM9.37469 26.7954H26.6252L17.9999 11.8931L9.37469 26.7954ZM16.5085 15.9034H19.4914V21.3068H16.5085V15.9034ZM17.071 16.4659V20.7443H18.9289V16.4659H17.071ZM16.5085 23.1648H19.4914V26.1477H16.5085V23.1648ZM17.071 23.7273V25.5852H18.9289V23.7273H17.071Z" fill="white"/>
</svg>
