<svg width="25" height="24" viewBox="0 0 25 24" fill="none" xmlns="http://www.w3.org/2000/svg">
<g clip-path="url(#clip0_773_17399)">
<path d="M21.5219 18.423C21.1741 19.2265 20.7623 19.9662 20.2853 20.6463C19.6351 21.5733 19.1027 22.215 18.6924 22.5714C18.0564 23.1563 17.3749 23.4559 16.6452 23.4729C16.1213 23.4729 15.4895 23.3238 14.7541 23.0214C14.0163 22.7205 13.3383 22.5714 12.7183 22.5714C12.068 22.5714 11.3707 22.7205 10.6248 23.0214C9.87771 23.3238 9.2759 23.4814 8.81577 23.497C8.11599 23.5268 7.41849 23.2188 6.72227 22.5714C6.2779 22.1838 5.72208 21.5194 5.05624 20.5781C4.34184 19.573 3.7545 18.4074 3.29438 17.0785C2.80159 15.6432 2.55457 14.2533 2.55457 12.9077C2.55457 11.3663 2.88763 10.0369 3.55475 8.92287C4.07905 8.02803 4.77655 7.32215 5.64953 6.80395C6.52251 6.28576 7.46577 6.02169 8.48157 6.0048C9.03739 6.0048 9.76627 6.17673 10.672 6.51462C11.5753 6.85364 12.1552 7.02557 12.4095 7.02557C12.5996 7.02557 13.2438 6.82454 14.336 6.42376C15.3689 6.05208 16.2406 5.89818 16.9547 5.9588C18.8897 6.11497 20.3435 6.87778 21.3104 8.25206C19.5797 9.30065 18.7236 10.7693 18.7407 12.6534C18.7563 14.121 19.2887 15.3422 20.335 16.3119C20.8092 16.7619 21.3387 17.1098 21.9279 17.3568C21.8002 17.7273 21.6653 18.0823 21.5219 18.423ZM17.0839 0.959154C17.0839 2.10942 16.6636 3.18341 15.826 4.17749C14.8152 5.35926 13.5925 6.04214 12.2667 5.93438C12.2498 5.79639 12.24 5.65115 12.24 5.49853C12.24 4.39428 12.7207 3.21252 13.5744 2.24626C14.0005 1.75703 14.5426 1.35024 15.1999 1.02574C15.8558 0.706076 16.4762 0.529296 17.0597 0.499023C17.0768 0.652795 17.0839 0.806577 17.0839 0.959139V0.959154Z" fill="#231F20"/>
</g>
<defs>
<clipPath id="clip0_773_17399">
<rect x="0.241211" y="-0.000976562" width="24" height="24" rx="12" fill="white"/>
</clipPath>
</defs>
</svg>
