<svg width="25" height="25" viewBox="0 0 25 25" fill="none" xmlns="http://www.w3.org/2000/svg">
<rect x="0.241211" y="0.499023" width="24" height="24" rx="12" fill="white"/>
<path fill-rule="evenodd" clip-rule="evenodd" d="M23.2812 12.7605C23.2812 11.945 23.208 11.1609 23.0721 10.4082H12.2412V14.8566H18.4303C18.1637 16.2941 17.3535 17.5121 16.1355 18.3275V21.213H19.8521C22.0267 19.2109 23.2812 16.2627 23.2812 12.7605Z" fill="#4285F4"/>
<path fill-rule="evenodd" clip-rule="evenodd" d="M12.2412 23.9986C15.3462 23.9986 17.9494 22.9688 19.8521 21.2125L16.1355 18.327C15.1057 19.017 13.7884 19.4247 12.2412 19.4247C9.24595 19.4247 6.71072 17.4018 5.8064 14.6836H1.96436V17.6631C3.85663 21.4215 7.74572 23.9986 12.2412 23.9986Z" fill="#34A853"/>
<path fill-rule="evenodd" clip-rule="evenodd" d="M5.80644 14.6845C5.57644 13.9945 5.44576 13.2575 5.44576 12.4995C5.44576 11.7416 5.57644 11.0045 5.80644 10.3145V7.33496H1.96439C1.18553 8.88746 0.741211 10.6438 0.741211 12.4995C0.741211 14.3552 1.18553 16.1116 1.96439 17.6641L5.80644 14.6845Z" fill="#FBBC05"/>
<path fill-rule="evenodd" clip-rule="evenodd" d="M12.2412 5.57289C13.9296 5.57289 15.4455 6.15311 16.6373 7.29266L19.9357 3.99425C17.9441 2.13857 15.3409 0.999023 12.2412 0.999023C7.74572 0.999023 3.85663 3.57607 1.96436 7.33448L5.8064 10.314C6.71072 7.59584 9.24595 5.57289 12.2412 5.57289Z" fill="#EA4335"/>
</svg>
