<svg width="25" height="24" viewBox="0 0 25 24" fill="none" xmlns="http://www.w3.org/2000/svg">
<g clip-path="url(#clip0_773_17404)">
<rect x="0.241211" y="-0.000976562" width="24" height="24" rx="12" fill="#1877F2"/>
<path d="M23.7412 12.0684C23.7412 5.71714 18.5925 0.568415 12.2412 0.568415C5.88993 0.568415 0.741211 5.71714 0.741211 12.0684C0.741211 17.8084 4.94659 22.566 10.4443 23.4287V15.3926H7.52441V12.0684H10.4443V9.53482C10.4443 6.65263 12.1612 5.0606 14.7881 5.0606C16.0463 5.0606 17.3623 5.28521 17.3623 5.28521V8.11529H15.9122C14.4836 8.11529 14.0381 9.00176 14.0381 9.9112V12.0684H17.2275L16.7177 15.3926H14.0381V23.4287C19.5358 22.566 23.7412 17.8084 23.7412 12.0684Z" fill="white"/>
</g>
<defs>
<clipPath id="clip0_773_17404">
<rect x="0.241211" y="-0.000976562" width="24" height="24" rx="12" fill="white"/>
</clipPath>
</defs>
</svg>
