<svg width="26" height="25" viewBox="0 0 26 25" fill="none" xmlns="http://www.w3.org/2000/svg">
<mask id="path-1-outside-1_3511_84444" maskUnits="userSpaceOnUse" x="4.5238" y="4.19922" width="16" height="16" fill="black">
<rect fill="white" x="4.5238" y="4.19922" width="16" height="16"/>
<path fill-rule="evenodd" clip-rule="evenodd" d="M5.5238 10.9395C5.5238 7.77427 8.11941 5.19922 11.3107 5.19922C14.5017 5.19922 17.0977 7.77427 17.0977 10.9395C17.0977 12.4367 16.517 13.8019 15.5672 14.8249L19.3981 18.5102L19.4024 18.5143C19.5622 18.668 19.5661 18.9204 19.4111 19.0789C19.2562 19.2374 19.0015 19.241 18.842 19.0876L18.8379 19.0837L14.9817 15.3741C13.9822 16.1896 12.7032 16.6798 11.3107 16.6798C8.11977 16.6798 5.5238 14.1048 5.5238 10.9395ZM16.2712 10.9399C16.2712 8.21774 14.0554 6.01942 11.3107 6.01942C8.56612 6.01942 6.3503 8.21738 6.3503 10.9399C6.3503 13.6624 8.56612 15.8604 11.3107 15.8604C14.0554 15.8604 16.2712 13.662 16.2712 10.9399Z"/>
</mask>
<path fill-rule="evenodd" clip-rule="evenodd" d="M5.5238 10.9395C5.5238 7.77427 8.11941 5.19922 11.3107 5.19922C14.5017 5.19922 17.0977 7.77427 17.0977 10.9395C17.0977 12.4367 16.517 13.8019 15.5672 14.8249L19.3981 18.5102L19.4024 18.5143C19.5622 18.668 19.5661 18.9204 19.4111 19.0789C19.2562 19.2374 19.0015 19.241 18.842 19.0876L18.8379 19.0837L14.9817 15.3741C13.9822 16.1896 12.7032 16.6798 11.3107 16.6798C8.11977 16.6798 5.5238 14.1048 5.5238 10.9395ZM16.2712 10.9399C16.2712 8.21774 14.0554 6.01942 11.3107 6.01942C8.56612 6.01942 6.3503 8.21738 6.3503 10.9399C6.3503 13.6624 8.56612 15.8604 11.3107 15.8604C14.0554 15.8604 16.2712 13.662 16.2712 10.9399Z" fill="#919293"/>
<path d="M15.5672 14.8249L15.274 14.5527L15.0066 14.8407L15.2898 15.1132L15.5672 14.8249ZM19.3981 18.5102L19.1208 18.7985L19.1208 18.7985L19.3981 18.5102ZM19.4024 18.5143L19.6797 18.2261L19.6797 18.226L19.4024 18.5143ZM19.4111 19.0789L19.1251 18.7993L19.1251 18.7993L19.4111 19.0789ZM18.842 19.0876L19.1193 18.7993L19.1192 18.7993L18.842 19.0876ZM18.8379 19.0837L18.5606 19.3719L18.5606 19.372L18.8379 19.0837ZM14.9817 15.3741L15.259 15.0858L15.0035 14.84L14.7288 15.0641L14.9817 15.3741ZM11.3107 4.79922C7.90154 4.79922 5.1238 7.55033 5.1238 10.9395H5.9238C5.9238 7.99821 8.33728 5.59922 11.3107 5.59922V4.79922ZM17.4977 10.9395C17.4977 7.55031 14.7196 4.79922 11.3107 4.79922V5.59922C14.2839 5.59922 16.6977 7.99823 16.6977 10.9395H17.4977ZM15.8603 15.097C16.8756 14.0035 17.4977 12.5423 17.4977 10.9395H16.6977C16.6977 12.3311 16.1584 13.6002 15.274 14.5527L15.8603 15.097ZM19.6754 18.2219L15.8445 14.5366L15.2898 15.1132L19.1208 18.7985L19.6754 18.2219ZM19.6797 18.226L19.6754 18.2219L19.1208 18.7985L19.1251 18.8026L19.6797 18.226ZM19.6971 19.3585C20.0075 19.0411 19.9995 18.5337 19.6797 18.2261L19.1251 18.8026C19.1259 18.8033 19.1255 18.8032 19.1251 18.8023C19.1249 18.8017 19.1248 18.8012 19.1248 18.801C19.1248 18.8008 19.1248 18.8003 19.1251 18.7996C19.1255 18.7987 19.1258 18.7985 19.1251 18.7993L19.6971 19.3585ZM18.5646 19.3758C18.8822 19.6813 19.3884 19.6743 19.6971 19.3585L19.1251 18.7993C19.1249 18.7995 19.1247 18.7997 19.1246 18.7997C19.1245 18.7998 19.1245 18.7998 19.1245 18.7998C19.1244 18.7999 19.1244 18.7999 19.1243 18.7999C19.1241 18.8 19.1234 18.8002 19.1223 18.8002C19.1212 18.8003 19.1204 18.8001 19.1201 18.7999C19.1201 18.7999 19.1199 18.7999 19.1193 18.7993L18.5646 19.3758ZM18.5606 19.372L18.5647 19.3759L19.1192 18.7993L19.1152 18.7954L18.5606 19.372ZM14.7044 15.6623L18.5606 19.3719L19.1152 18.7954L15.259 15.0858L14.7044 15.6623ZM11.3107 17.0798C12.7986 17.0798 14.1663 16.5557 15.2346 15.684L14.7288 15.0641C13.7981 15.8236 12.6077 16.2798 11.3107 16.2798V17.0798ZM5.1238 10.9395C5.1238 14.3288 7.90192 17.0798 11.3107 17.0798V16.2798C8.33763 16.2798 5.9238 13.8808 5.9238 10.9395H5.1238ZM11.3107 6.41942C13.8375 6.41942 15.8712 8.44168 15.8712 10.9399H16.6712C16.6712 7.9938 14.2733 5.61942 11.3107 5.61942V6.41942ZM6.7503 10.9399C6.7503 8.44134 8.78398 6.41942 11.3107 6.41942V5.61942C8.34826 5.61942 5.9503 7.99342 5.9503 10.9399H6.7503ZM11.3107 15.4604C8.78398 15.4604 6.7503 13.4384 6.7503 10.9399H5.9503C5.9503 13.8864 8.34826 16.2604 11.3107 16.2604V15.4604ZM15.8712 10.9399C15.8712 13.4381 13.8375 15.4604 11.3107 15.4604V16.2604C14.2733 16.2604 16.6712 13.886 16.6712 10.9399H15.8712Z" fill="#919293" mask="url(#path-1-outside-1_3511_84444)"/>
</svg>
