<svg width="25" height="25" viewBox="0 0 25 25" fill="none" xmlns="http://www.w3.org/2000/svg">
<path d="M19.9155 13.396C19.9555 13.096 19.9755 12.786 19.9755 12.456C19.9755 12.136 19.9555 11.816 19.9055 11.516L21.9355 9.93596C22.1155 9.79596 22.1655 9.52596 22.0555 9.32596L20.1355 6.00596C20.0155 5.78596 19.7655 5.71596 19.5455 5.78596L17.1555 6.74596C16.6555 6.36596 16.1255 6.04596 15.5355 5.80596L15.1755 3.26596C15.1355 3.02596 14.9355 2.85596 14.6955 2.85596H10.8555C10.6155 2.85596 10.4255 3.02596 10.3855 3.26596L10.0255 5.80596C9.4355 6.04596 8.8955 6.37596 8.4055 6.74596L6.0155 5.78596C5.7955 5.70596 5.5455 5.78596 5.4255 6.00596L3.5155 9.32596C3.3955 9.53596 3.4355 9.79596 3.6355 9.93596L5.6655 11.516C5.6155 11.816 5.5755 12.146 5.5755 12.456C5.5755 12.766 5.5955 13.096 5.6455 13.396L3.6155 14.976C3.4355 15.116 3.3855 15.386 3.4955 15.586L5.4155 18.906C5.5355 19.126 5.7855 19.196 6.0055 19.126L8.3955 18.166C8.8955 18.546 9.4255 18.866 10.0155 19.106L10.3755 21.646C10.4255 21.886 10.6155 22.056 10.8555 22.056H14.6955C14.9355 22.056 15.1355 21.886 15.1655 21.646L15.5255 19.106C16.1155 18.866 16.6555 18.546 17.1455 18.166L19.5355 19.126C19.7555 19.206 20.0055 19.126 20.1255 18.906L22.0455 15.586C22.1655 15.366 22.1155 15.116 21.9255 14.976L19.9155 13.396ZM12.7755 16.056C10.7955 16.056 9.1755 14.436 9.1755 12.456C9.1755 10.476 10.7955 8.85596 12.7755 8.85596C14.7555 8.85596 16.3755 10.476 16.3755 12.456C16.3755 14.436 14.7555 16.056 12.7755 16.056Z" fill="#868589"/>
</svg>
