<svg width="36" height="37" viewBox="0 0 36 37" fill="none" xmlns="http://www.w3.org/2000/svg">
<path fill-rule="evenodd" clip-rule="evenodd" d="M14.77 18.5645C14.77 16.7149 16.2135 15.2155 17.9942 15.2155C19.7748 15.2155 21.2183 16.7149 21.2183 18.5645C21.2183 20.4142 19.7748 21.9136 17.9942 21.9136C16.2135 21.9136 14.77 20.4142 14.77 18.5645Z" fill="#2F383D"/>
<path fill-rule="evenodd" clip-rule="evenodd" d="M18.0133 11.8643C14.452 11.8643 11.565 14.8632 11.565 18.5624C11.565 22.2617 14.452 25.2605 18.0133 25.2605C21.5746 25.2605 24.4616 22.2617 24.4616 18.5624C24.4616 14.8632 21.5746 11.8643 18.0133 11.8643ZM8.34082 18.5624C8.34082 13.0135 12.6713 8.51529 18.0133 8.51529C23.3552 8.51529 27.6858 13.0135 27.6858 18.5624C27.6858 24.1113 23.3552 28.6096 18.0133 28.6096C12.6713 28.6096 8.34082 24.1113 8.34082 18.5624Z" fill="#2F383D"/>
<path fill-rule="evenodd" clip-rule="evenodd" d="M18 1.81802C18.8903 1.81802 19.6121 2.56773 19.6121 3.49255V3.50929C19.6121 4.43411 18.8903 5.18381 18 5.18381C17.1097 5.18381 16.3879 4.43411 16.3879 3.50929V3.49255C16.3879 2.56773 17.1097 1.81802 18 1.81802ZM11.7129 3.30835C12.6032 3.30835 13.325 4.05806 13.325 4.98287V4.99962C13.325 5.92443 12.6032 6.67414 11.7129 6.67414C10.8226 6.67414 10.1008 5.92443 10.1008 4.99962V4.98287C10.1008 4.05806 10.8226 3.30835 11.7129 3.30835ZM24.2871 3.30835C25.1774 3.30835 25.8992 4.05806 25.8992 4.98287V4.99962C25.8992 5.92443 25.1774 6.67414 24.2871 6.67414C23.3968 6.67414 22.675 5.92443 22.675 4.99962V4.98287C22.675 4.05806 23.3968 3.30835 24.2871 3.30835ZM6.65097 7.49466C7.5413 7.49466 8.26305 8.24437 8.26305 9.16918V9.18592C8.26305 10.1107 7.5413 10.8604 6.65097 10.8604C5.76065 10.8604 5.03889 10.1107 5.03889 9.18592V9.16918C5.03889 8.24437 5.76065 7.49466 6.65097 7.49466ZM29.349 7.49466C30.2394 7.49466 30.9611 8.24437 30.9611 9.16918V9.18592C30.9611 10.1107 30.2394 10.8604 29.349 10.8604C28.4587 10.8604 27.7369 10.1107 27.7369 9.18592V9.16918C27.7369 8.24437 28.4587 7.49466 29.349 7.49466ZM3.86208 13.5397C4.7524 13.5397 5.47416 14.2894 5.47416 15.2142V15.231C5.47416 16.1558 4.7524 16.9055 3.86208 16.9055C2.97175 16.9055 2.25 16.1558 2.25 15.231V15.2142C2.25 14.2894 2.97175 13.5397 3.86208 13.5397ZM32.1379 13.5397C33.0282 13.5397 33.75 14.2894 33.75 15.2142V15.231C33.75 16.1558 33.0282 16.9055 32.1379 16.9055C31.2476 16.9055 30.5258 16.1558 30.5258 15.231V15.2142C30.5258 14.2894 31.2476 13.5397 32.1379 13.5397ZM3.86208 20.2378C4.7524 20.2378 5.47416 20.9875 5.47416 21.9123V21.929C5.47416 22.8539 4.7524 23.6036 3.86208 23.6036C2.97175 23.6036 2.25 22.8539 2.25 21.929V21.9123C2.25 20.9875 2.97175 20.2378 3.86208 20.2378ZM32.1379 20.2378C33.0282 20.2378 33.75 20.9875 33.75 21.9123V21.929C33.75 22.8539 33.0282 23.6036 32.1379 23.6036C31.2476 23.6036 30.5258 22.8539 30.5258 21.929V21.9123C30.5258 20.9875 31.2476 20.2378 32.1379 20.2378ZM6.65097 26.2828C7.5413 26.2828 8.26305 27.0325 8.26305 27.9573V27.9741C8.26305 28.8989 7.5413 29.6486 6.65097 29.6486C5.76065 29.6486 5.03889 28.8989 5.03889 27.9741V27.9573C5.03889 27.0325 5.76065 26.2828 6.65097 26.2828ZM29.349 26.2828C30.2394 26.2828 30.9611 27.0325 30.9611 27.9573V27.9741C30.9611 28.8989 30.2394 29.6486 29.349 29.6486C28.4587 29.6486 27.7369 28.8989 27.7369 27.9741V27.9573C27.7369 27.0325 28.4587 26.2828 29.349 26.2828ZM11.7129 30.4691C12.6032 30.4691 13.325 31.2188 13.325 32.1436V32.1604C13.325 33.0852 12.6032 33.8349 11.7129 33.8349C10.8226 33.8349 10.1008 33.0852 10.1008 32.1604V32.1436C10.1008 31.2188 10.8226 30.4691 11.7129 30.4691ZM24.2871 30.4691C25.1774 30.4691 25.8992 31.2188 25.8992 32.1436V32.1604C25.8992 33.0852 25.1774 33.8349 24.2871 33.8349C23.3968 33.8349 22.675 33.0852 22.675 32.1604V32.1436C22.675 31.2188 23.3968 30.4691 24.2871 30.4691ZM18 31.9594C18.8903 31.9594 19.6121 32.7091 19.6121 33.634V33.6507C19.6121 34.5755 18.8903 35.3252 18 35.3252C17.1097 35.3252 16.3879 34.5755 16.3879 33.6507V33.634C16.3879 32.7091 17.1097 31.9594 18 31.9594Z" fill="#2F383D"/>
</svg>
