<svg width="40" height="41" viewBox="0 0 40 41" fill="none" xmlns="http://www.w3.org/2000/svg">
<path d="M9.18345 5.40707C9.0603 5.41208 8.94049 5.45489 8.83486 5.53161L6.84226 6.92657L4.84966 8.32125C4.62589 8.47831 4.48828 8.76769 4.48828 9.081C4.48828 9.3943 4.62589 9.68367 4.84966 9.84075L6.84226 11.2354L8.83486 12.6304C9.04835 12.7872 9.31383 12.7994 9.53649 12.6626C9.75943 12.5259 9.90844 12.2595 9.93068 11.9579C9.93179 11.9288 9.93179 11.8998 9.93068 11.8706V9.87805H14.7876C15.0011 9.88111 15.2066 9.79855 15.3586 9.64871C15.5107 9.49888 15.596 9.29456 15.596 9.08106C15.596 8.86757 15.5107 8.66325 15.3586 8.51341C15.2066 8.36358 15.0011 8.28102 14.7876 8.28407H9.93068V6.29148C9.93235 6.05241 9.8534 5.82307 9.71246 5.65628C9.57152 5.48948 9.38054 5.39942 9.18345 5.4072L9.18345 5.40707ZM20.3669 7.08833C18.6109 7.08833 17.1787 8.5119 17.1787 10.2766V20.4886L17.1039 20.3143C17.0964 20.2932 17.088 20.2723 17.0789 20.2521C16.3686 18.9341 15.5814 18.1944 14.6879 17.9481C13.7941 17.7015 12.9794 18.0087 12.3965 18.3465C12.3837 18.3545 12.3712 18.3629 12.359 18.3715C11.7149 18.801 11.1247 19.3567 10.902 20.1522C10.6791 20.9481 10.827 21.8268 11.2506 22.9171C11.2545 22.9254 11.2587 22.9338 11.2631 22.9418L12.4587 25.7317C12.4626 25.74 12.4668 25.7484 12.471 25.7564C14.7402 30.5345 16.9202 33.8442 18.9594 36.2923C19.1107 36.4733 19.3339 36.5781 19.5696 36.5786H30.3296C30.5006 36.5769 30.6666 36.5202 30.8028 36.4168C33.0681 34.7386 34.6812 30.8277 35.2861 27.1135C35.5886 25.2569 35.6214 23.4486 35.1741 21.9578C34.7268 20.4669 33.6391 19.2343 32.0109 19.0437C31.9817 19.042 31.9525 19.042 31.9236 19.0437C31.6412 19.0437 31.2843 19.0564 30.9148 19.1309C30.8953 19.1348 30.8723 19.139 30.8525 19.1432C30.6482 18.6559 30.3733 18.2373 30.0183 17.9851C29.4223 17.5623 28.8157 17.4414 28.3245 17.4497C27.8583 17.4575 27.4194 17.6101 27.0416 17.8731C26.8718 17.616 26.6908 17.3619 26.469 17.2007C25.8782 16.7714 25.2494 16.6525 24.7502 16.6525C24.3374 16.6525 23.9377 16.7545 23.5546 16.9141C23.5512 14.746 23.5518 11.9373 23.5546 10.2764C23.5579 8.51006 22.1224 7.08813 20.3666 7.08813L20.3669 7.08833ZM8.48604 7.8105V10.3513L7.58951 9.71608L6.68025 9.08088L7.58951 8.44569L8.48604 7.8105ZM20.3669 8.68226C21.3065 8.68226 21.9625 9.31774 21.9608 10.264C21.9572 12.3553 21.95 16.683 21.9608 18.645C21.9614 19.0187 22.221 19.3417 22.5857 19.4223C22.9505 19.5032 23.3222 19.3197 23.4803 18.9814C23.6565 18.615 24.3195 18.2467 24.7504 18.2467C24.9439 18.2467 25.3031 18.3145 25.5351 18.4833C25.7673 18.652 25.946 18.8616 25.946 19.4424C25.9524 19.8079 26.2068 20.1226 26.5634 20.2049C26.9198 20.2874 27.2864 20.1168 27.453 19.791C27.7771 19.1424 27.9506 19.0504 28.3495 19.0437C28.4601 19.0418 28.8471 19.1029 29.0967 19.2803C29.3466 19.4577 29.5326 19.6739 29.5326 20.2394C29.5395 20.5516 29.728 20.8309 30.0149 20.9541C30.3015 21.0775 30.634 21.0219 30.8652 20.8123C30.8461 20.8301 31.0045 20.7448 31.2263 20.7C31.4365 20.658 31.6925 20.6397 31.8865 20.6377C32.8286 20.7709 33.3148 21.3271 33.6423 22.4188C33.9778 23.5363 33.9942 25.1508 33.7171 26.8524C33.1792 30.1554 31.4801 33.7467 29.9935 34.9843H19.9807C18.0951 32.6773 16.0709 29.6034 13.9281 25.096C13.9239 25.0869 13.92 25.0799 13.9156 25.071L12.745 22.3312C12.7408 22.3201 12.7367 22.317 12.7325 22.3064C12.3822 21.3938 12.3508 20.8712 12.4337 20.5752C12.5165 20.2794 12.7347 20.0489 13.2306 19.7159C13.2368 19.7118 13.237 19.7076 13.2432 19.7034C13.6312 19.4866 13.9554 19.394 14.2645 19.4794C14.5858 19.568 15.0807 19.9094 15.6716 20.9989C15.6752 21.0055 15.6805 21.0044 15.6841 21.0111L17.2409 24.5482C17.389 24.9004 17.7665 25.098 18.1404 25.0191C18.5146 24.9399 18.7798 24.6065 18.7726 24.2243V10.2761C18.7726 9.32823 19.427 8.68191 20.3668 8.68191L20.3669 8.68226Z" fill="black"/>
</svg>
