<svg width="28" height="28" viewBox="0 0 28 28" fill="none" xmlns="http://www.w3.org/2000/svg">
  <path fill-rule="evenodd" clip-rule="evenodd"
    d="M19.6863 11.7384C20.9752 11.7005 22.807 11.6467 23.3248 12.7683L23.3246 12.7684C23.3246 12.7684 24.2935 14.3296 23.0556 15.4059C23.0556 15.4059 24.4012 16.7516 22.6788 18.4203C22.6788 18.4203 23.5937 19.9302 22.3557 21.0606C22.3557 21.0606 22.84 23.1891 21.2253 23.4317H11.8053C11.8053 23.4317 11.2991 23.1323 10.8623 22.7571V14.2171H11.3209C11.3209 14.2171 12.0746 13.5197 12.6132 12.6585C12.8382 12.2984 13.0162 11.8726 13.1904 11.4557C13.4328 10.8757 13.668 10.3131 14.0126 9.9684C14.0789 9.90202 14.1635 9.82146 14.2618 9.72786C15.0409 8.98607 16.6804 7.42489 16.9194 5.60873C16.9194 5.60873 17.027 3.88662 18.1034 4.10195C19.1797 4.31729 19.9873 6.03972 19.6642 7.16999C19.3965 8.10659 18.6118 9.48647 18.1668 10.269C18.0747 10.4309 17.9972 10.5673 17.9418 10.6689C17.6189 11.261 17.7266 11.6917 18.8569 11.7455C19.0812 11.7561 19.3671 11.7478 19.6863 11.7384ZM4.96068 13.7322H9.73085V13.7325C10.0876 13.7325 10.3768 14.0217 10.3768 14.3785V23.271C10.3768 23.6278 10.0876 23.917 9.73085 23.917H4.96068C4.60394 23.917 4.3147 23.6278 4.3147 23.2712V14.3782C4.3147 14.0215 4.60394 13.7322 4.96068 13.7322Z" />
</svg>