<svg width="25" height="25" viewBox="0 0 25 25" fill="none" xmlns="http://www.w3.org/2000/svg">
<path d="M9.4299 20.3942C8.49895 20.3942 7.58891 20.1182 6.81483 19.601C6.04076 19.0838 5.43742 18.3487 5.0811 17.4886C4.72479 16.6286 4.63149 15.6822 4.81301 14.7691C4.99453 13.856 5.44271 13.0172 6.10089 12.3589L8.09773 10.3611L9.42896 11.6923L7.43212 13.6892C6.9024 14.2189 6.60481 14.9373 6.60481 15.6865C6.60481 16.4356 6.9024 17.1541 7.43212 17.6838C7.96184 18.2135 8.6803 18.5111 9.42943 18.5111C10.1786 18.5111 10.897 18.2135 11.4267 17.6838L13.4226 15.6869L14.7548 17.0191L12.758 19.0159C12.3217 19.4543 11.8029 19.8019 11.2315 20.0384C10.6601 20.275 10.0474 20.396 9.42896 20.3942H9.4299ZM10.0955 16.3525L8.76429 15.0213L15.4204 8.36425L16.7526 9.69547L10.0965 16.3516L10.0955 16.3525ZM17.4191 14.3557L16.087 13.0245L18.0829 11.0276C18.3527 10.7672 18.5679 10.4556 18.716 10.111C18.8641 9.76646 18.9421 9.39586 18.9455 9.02084C18.9488 8.64582 18.8775 8.27389 18.7355 7.92675C18.5936 7.57961 18.384 7.26421 18.1188 6.99896C17.8537 6.73371 17.5384 6.52392 17.1913 6.38182C16.8443 6.23973 16.4724 6.16818 16.0973 6.17135C15.7223 6.17452 15.3517 6.25235 15.0071 6.40029C14.6624 6.54823 14.3507 6.76332 14.0901 7.03302L12.0924 9.02986L10.7611 7.69863L12.758 5.70085C13.6445 4.83659 14.8359 4.35642 16.074 4.36435C17.3121 4.37229 18.4972 4.86768 19.3727 5.74323C20.2481 6.61878 20.7433 7.80397 20.7511 9.04207C20.7588 10.2802 20.2785 11.4715 19.4141 12.3579L17.4182 14.3548V14.3557H17.4191Z" fill="black"/>
</svg>
